<?xml version="1.0" standalone="no"?>
<!DOCTYPE svg PUBLIC "-//W3C//DTD SVG 20010904//EN"
 "http://www.w3.org/TR/2001/REC-SVG-20010904/DTD/svg10.dtd">
<svg version="1.0" xmlns="http://www.w3.org/2000/svg"
 width="80.000000pt" height="80.000000pt" viewBox="0 0 80.000000 80.000000"
 preserveAspectRatio="xMidYMid meet">

<g transform="translate(0.000000,80.000000) scale(0.100000,-0.100000)"
fill="#000000" stroke="none">
<path d="M263 498 c-73 -155 -132 -282 -130 -283 1 -1 60 -46 130 -99 70 -54
130 -96 133 -94 2 3 3 174 2 381 l-3 377 -132 -282z"/>
<path d="M411 745 c0 -5 6 -21 14 -35 8 -14 14 -20 14 -15 0 6 -6 21 -14 35
-8 14 -14 21 -14 15z"/>
<path d="M461 635 c0 -5 13 -35 29 -65 16 -30 29 -50 29 -45 0 6 -13 35 -29
65 -16 30 -29 51 -29 45z"/>
<path d="M541 465 c0 -5 13 -35 29 -65 16 -30 29 -50 29 -45 0 6 -13 35 -29
65 -16 30 -29 51 -29 45z"/>
<path d="M620 298 c0 -4 7 -23 16 -42 17 -34 17 -35 -12 -61 l-29 -26 33 22
c17 13 32 28 32 33 -1 13 -39 84 -40 74z"/>
<path d="M569 153 c-13 -16 -12 -17 4 -4 16 13 21 21 13 21 -2 0 -10 -8 -17
-17z"/>
<path d="M500 104 c-25 -19 -52 -42 -60 -51 -8 -9 13 5 48 31 34 26 62 49 62
52 0 7 -2 5 -50 -32z"/>
</g>
</svg>
