<?xml version="1.0" standalone="no"?>
<!DOCTYPE svg PUBLIC "-//W3C//DTD SVG 20010904//EN"
 "http://www.w3.org/TR/2001/REC-SVG-20010904/DTD/svg10.dtd">
<svg version="1.0" xmlns="http://www.w3.org/2000/svg"
 width="305.000000pt" height="73.000000pt" viewBox="0 0 305.000000 73.000000"
 preserveAspectRatio="xMidYMid meet">

<g transform="translate(0.000000,73.000000) scale(0.100000,-0.100000)"
fill="#000000" stroke="none">
<path d="M537 639 c-30 -46 -107 -165 -171 -263 -64 -98 -114 -182 -109 -186
16 -14 324 -180 335 -180 5 0 40 17 76 37 37 20 113 62 168 93 l102 56 -168
258 c-92 141 -171 260 -174 263 -3 3 -29 -32 -59 -78z m226 -189 c80 -124 148
-232 151 -240 4 -11 -18 -28 -82 -62 -48 -26 -120 -66 -159 -88 l-73 -41 0
338 c0 185 4 333 8 328 5 -6 75 -111 155 -235z"/>
<path d="M1123 523 c-22 -4 -23 -9 -23 -109 0 -86 3 -104 15 -104 11 0 15 11
15 40 0 38 2 40 30 40 42 0 96 24 110 49 11 22 3 48 -22 68 -15 13 -93 23
-125 16z m107 -38 c10 -12 10 -21 2 -40 -10 -21 -18 -25 -57 -25 l-45 0 0 40
0 40 44 0 c27 0 48 -6 56 -15z"/>
<path d="M1588 523 l-28 -4 0 -105 c0 -99 1 -104 21 -104 19 0 21 5 17 45 -3
44 -3 45 27 45 40 0 51 -9 70 -53 10 -25 22 -37 35 -37 18 0 18 2 3 38 -8 20
-22 44 -30 54 -13 14 -12 17 6 23 39 12 35 77 -6 89 -32 9 -88 14 -115 9z
m106 -46 c9 -15 7 -22 -13 -38 -13 -10 -36 -19 -52 -19 -27 0 -29 3 -29 41 l0
40 41 -3 c27 -2 46 -9 53 -21z"/>
<path d="M2548 523 l-28 -4 0 -105 0 -104 65 0 c112 0 175 41 175 114 0 43
-47 85 -109 96 -29 6 -59 9 -65 9 -6 -1 -23 -4 -38 -6z m132 -38 c57 -29 51
-107 -10 -138 -21 -10 -51 -16 -75 -15 l-40 3 -3 83 -3 82 51 0 c28 0 64 -7
80 -15z"/>
<path d="M1344 461 c39 -51 46 -66 46 -105 0 -39 3 -46 20 -46 17 0 20 7 20
46 0 39 6 55 37 93 59 74 58 71 35 71 -13 0 -33 -17 -53 -45 -18 -25 -36 -45
-40 -45 -4 0 -20 20 -36 45 -20 32 -35 45 -51 45 -22 0 -20 -4 22 -59z"/>
<path d="M1835 446 c-19 -42 -42 -90 -50 -106 -15 -29 -15 -30 5 -30 13 0 26
12 37 35 16 33 20 35 65 35 45 0 50 -3 69 -35 12 -20 29 -35 39 -35 16 0 12
14 -30 103 -42 86 -53 102 -75 105 -23 3 -29 -4 -60 -72z m84 -44 c-10 -2 -29
-2 -42 0 l-24 3 20 45 20 44 22 -44 c22 -43 22 -45 4 -48z"/>
<path d="M2066 433 c-4 -49 -10 -96 -12 -105 -4 -13 0 -18 15 -18 20 0 20 1
33 154 3 24 10 13 42 -63 27 -63 44 -91 56 -91 11 0 31 30 61 93 l44 92 2 -60
c4 -90 12 -125 28 -125 17 0 18 19 9 133 -7 75 -8 77 -34 77 -23 0 -31 -10
-67 -84 l-40 -85 -38 85 c-34 76 -40 84 -65 84 -28 0 -28 0 -34 -87z"/>
<path d="M2410 415 c0 -98 1 -105 20 -105 19 0 20 7 20 105 0 98 -1 105 -20
105 -19 0 -20 -7 -20 -105z"/>
<path d="M1463 133 c48 -2 126 -2 175 0 48 1 8 3 -88 3 -96 0 -136 -2 -87 -3z"/>
<path d="M1443 113 c53 -2 141 -2 195 0 53 1 9 3 -98 3 -107 0 -151 -2 -97 -3z"/>
</g>
</svg>
