<?xml version="1.0" standalone="no"?>
<!DOCTYPE svg PUBLIC "-//W3C//DTD SVG 20010904//EN"
 "http://www.w3.org/TR/2001/REC-SVG-20010904/DTD/svg10.dtd">
<svg version="1.0" xmlns="http://www.w3.org/2000/svg"
 width="369.000000pt" height="74.000000pt" viewBox="0 0 369.000000 74.000000"
 preserveAspectRatio="xMidYMid meet">

<g transform="translate(0.000000,74.000000) scale(0.100000,-0.100000)"
fill="#000000" stroke="none">
<path d="M455 473 c-116 -141 -211 -262 -213 -268 -1 -6 35 -27 80 -47 46 -19
142 -61 214 -93 l131 -57 114 50 c63 27 123 52 133 56 10 4 17 9 14 12 -3 2
-61 -20 -129 -49 l-124 -55 -5 354 -5 353 -210 -256z"/>
<path d="M708 673 c16 -21 109 -135 206 -253 l175 -214 -67 -32 c-85 -41 -76
-44 13 -4 50 22 65 33 58 43 -47 61 -406 497 -410 497 -3 0 9 -17 25 -37z"/>
<path d="M1302 423 c3 -103 4 -108 26 -111 20 -3 22 1 22 41 l0 44 65 5 c75 6
115 28 115 62 0 45 -33 61 -136 64 l-95 4 3 -109z m153 77 c19 -7 26 -16 23
-32 -4 -28 -41 -48 -90 -48 l-38 0 0 45 0 45 39 0 c22 0 52 -5 66 -10z"/>
<path d="M1618 467 c58 -59 62 -65 62 -110 0 -40 3 -47 20 -47 17 0 20 7 20
48 0 47 3 51 64 110 62 60 63 62 36 62 -22 0 -39 -12 -72 -51 l-43 -51 -47 51
c-35 38 -54 51 -75 51 -26 0 -25 -2 35 -63z"/>
<path d="M1890 420 c0 -110 0 -111 23 -108 19 3 22 10 25 51 3 46 4 47 35 47
42 0 74 -23 92 -66 11 -26 20 -34 40 -34 l25 0 -25 50 c-15 29 -32 50 -42 50
-10 0 -3 9 17 23 42 28 45 38 21 68 -17 22 -28 24 -115 27 l-96 4 0 -112z
m161 70 l24 -20 -24 -20 c-15 -13 -38 -20 -67 -20 l-44 0 0 40 0 40 44 0 c29
0 52 -7 67 -20z"/>
<path d="M2224 429 c-72 -124 -69 -117 -42 -115 14 1 30 13 43 33 19 31 22 32
88 33 67 0 68 0 88 -35 15 -25 28 -35 46 -35 13 0 23 3 21 8 -1 4 -30 53 -63
109 -55 95 -62 103 -91 103 -28 0 -35 -8 -90 -101z m94 -27 c-28 -2 -52 -1
-55 2 -3 2 7 25 22 51 l28 46 27 -48 28 -48 -50 -3z"/>
<path d="M2537 493 c-4 -21 -9 -71 -13 -110 -7 -69 -6 -73 14 -73 18 0 21 8
27 58 14 137 10 134 64 40 64 -112 77 -112 147 0 55 88 64 88 64 1 0 -63 11
-99 30 -99 9 0 19 2 21 5 3 2 -1 51 -8 107 -7 57 -12 104 -13 106 0 2 -14 2
-32 0 -28 -3 -38 -12 -81 -83 -26 -44 -50 -79 -53 -78 -3 1 -27 37 -52 80 -41
68 -51 78 -78 81 -29 3 -32 1 -37 -35z"/>
<path d="M2970 419 c0 -109 0 -110 23 -107 21 3 22 8 25 111 l3 107 -26 0 -25
0 0 -111z"/>
<path d="M3102 423 l3 -108 91 1 c103 2 151 14 182 47 35 37 38 78 8 113 -33
40 -84 54 -195 54 l-92 0 3 -107z m205 68 c47 -22 60 -50 43 -91 -16 -39 -65
-60 -139 -60 l-61 0 0 85 0 85 58 0 c34 0 74 -8 99 -19z"/>
<path d="M1763 133 c59 -2 154 -2 210 0 56 1 8 3 -108 3 -115 0 -161 -2 -102
-3z"/>
<path d="M1653 113 c120 -2 314 -2 430 0 117 1 19 2 -218 2 -236 0 -332 -1
-212 -2z"/>
</g>
</svg>
